<svg width="512" height="512" viewBox="0 0 512 512" fill="none" xmlns="http://www.w3.org/2000/svg">
<g clip-path="url(#clip0_1_2)">
<circle cx="256" cy="256" r="256" fill="#f3e8ff"/>
<path fill-rule="evenodd" clip-rule="evenodd" d="M155.224 359.225C155.926 363.554 151.896 367.129 147.674 365.943L103.76 353.617C100.576 352.723 98.7158 349.422 99.6005 346.235L126.346 249.903C128.091 243.617 137.286 244.223 138.217 250.68C139.49 259.511 140.967 269.532 142.5 279.5C145.843 301.23 152.3 341.191 155.224 359.225ZM235.042 390.468C228.812 388.719 229.382 379.707 235.783 378.756L323.675 365.71C327.671 365.116 331.096 368.567 330.513 372.565C328.547 386.055 327.588 395.001 326.541 408.663C326.251 412.451 322.575 415.039 318.918 414.012L235.042 390.468Z" fill="#A855F7"/>
<path fill-rule="evenodd" clip-rule="evenodd" d="M262.5 201C286.524 201 306 181.524 306 157.5C306 152.406 305.124 147.516 303.515 142.973C302.083 138.929 304.324 134.123 308.564 133.477L355.317 126.365C358.494 125.881 361.478 127.931 362.101 131.084C366.612 153.918 383.854 240.687 392.5 277C398.095 300.498 403.477 315.157 406.979 323.276C408.692 327.248 406.206 332.201 401.925 332.827L180.936 365.132C177.657 365.612 174.608 363.325 174.129 360.047C162.965 283.699 156.589 238.787 147.686 163.33C147.304 160.097 149.571 157.134 152.795 156.674L211.463 148.315C215.672 147.716 219.19 151.599 219.031 155.847C219.01 156.395 219 156.946 219 157.5C219 181.524 238.476 201 262.5 201Z" fill="#A855F7"/>
<path fill-rule="evenodd" clip-rule="evenodd" d="M263 151C275.15 151 285 141.598 285 130C285 128.703 286.574 127.863 287.454 128.816C292.768 134.568 296 142.168 296 150.5C296 168.449 281.002 183 262.5 183C243.998 183 229 168.449 229 150.5C229 141.97 232.387 134.208 237.928 128.41C239.051 127.234 241 128.374 241 130C241 141.598 250.85 151 263 151Z" fill="#A855F7"/>
<circle cx="262.5" cy="117.5" r="20.5" fill="#A855F7"/>
</g>
<defs>
<clipPath id="clip0_1_2">
<rect width="512" height="512" fill="#A855F7"/>
</clipPath>
</defs>
</svg>
